<?xml version="1.0" encoding="UTF-8" standalone="no"?>
<svg
   xmlns:dc="http://purl.org/dc/elements/1.1/"
   xmlns:cc="http://creativecommons.org/ns#"
   xmlns:rdf="http://www.w3.org/1999/02/22-rdf-syntax-ns#"
   xmlns:svg="http://www.w3.org/2000/svg"
   xmlns="http://www.w3.org/2000/svg"
   xmlns:sodipodi="http://sodipodi.sourceforge.net/DTD/sodipodi-0.dtd"
   xmlns:inkscape="http://www.inkscape.org/namespaces/inkscape"
   width="8.2722368mm"
   height="7.4083099mm"
   viewBox="0 0 8.2722368 7.4083099"
   version="1.1"
   id="svg8"
   inkscape:export-filename="/Users/rad/icon.png"
   inkscape:export-xdpi="600.00189"
   inkscape:export-ydpi="600.00189"
   inkscape:version="1.0 (4035a4f, 2020-05-01)"
   sodipodi:docname="icon.svg">
  <defs
     id="defs2">
    <inkscape:path-effect
       only_selected="false"
       apply_with_weight="true"
       apply_no_weight="true"
       helper_size="0"
       steps="2"
       weight="33.333333"
       lpeversion="1"
       is_visible="true"
       id="path-effect1912"
       effect="bspline" />
    <inkscape:path-effect
       only_selected="false"
       apply_with_weight="true"
       apply_no_weight="true"
       helper_size="0"
       steps="2"
       weight="33.333333"
       lpeversion="1"
       is_visible="true"
       id="path-effect1899"
       effect="bspline" />
    <inkscape:path-effect
       only_selected="false"
       apply_with_weight="true"
       apply_no_weight="true"
       helper_size="0"
       steps="2"
       weight="33.333333"
       lpeversion="1"
       is_visible="true"
       id="path-effect1859"
       effect="bspline" />
    <inkscape:path-effect
       only_selected="false"
       apply_with_weight="true"
       apply_no_weight="true"
       helper_size="0"
       steps="2"
       weight="33.333333"
       lpeversion="1"
       is_visible="true"
       id="path-effect961"
       effect="bspline" />
    <inkscape:path-effect
       effect="bspline"
       id="path-effect942"
       is_visible="true"
       lpeversion="1"
       weight="33.333333"
       steps="2"
       helper_size="0"
       apply_no_weight="true"
       apply_with_weight="true"
       only_selected="false" />
    <pattern
       patternUnits="userSpaceOnUse"
       width="529.90301"
       height="529.90301"
       patternTransform="translate(321.46017,-2416.7634)"
       id="pattern980">
      <circle
         r="214.95151"
         cy="264.95151"
         cx="264.95151"
         id="path963"
         style="fill:#4eb162;fill-opacity:1;stroke:#141414;stroke-width:100;stroke-linecap:round;stroke-linejoin:bevel;stroke-miterlimit:4;stroke-dasharray:none" />
    </pattern>
    <clipPath
       id="clipPath2022"
       clipPathUnits="userSpaceOnUse">
      <path
         d="m 93.059435,-1030.8353 v 124.57177 H 217.63167 v -38.31291 c -8.59906,-0.0503 -17.19892,-0.0333 -25.7979,0.0151 -12.69668,0.0713 -16.43259,-8.95236 -11.21172,-14.31076 0.14747,-0.51776 0.46414,-1.01169 0.95188,-1.42523 -3.58807,-2.53746 -4.6826,-6.38156 -3.28817,-9.60149 -1.81431,-0.11491 -3.04673,-0.78005 -3.70004,-1.64433 -1.23263,-0.93382 -1.51704,-2.3444 -0.85834,-3.50057 -2.40393,-0.005 -4.80805,-0.0143 -7.21197,-0.029 -17.99411,-0.10887 -17.994,-18.30252 0,-18.17717 17.03831,0.11864 34.07759,-0.0417 51.11626,-0.0377 v -37.54761 z"
         style="fill:#ff0000;fill-opacity:1;fill-rule:nonzero;stroke:none;stroke-width:0.264583"
         id="path2024" />
    </clipPath>
    <clipPath
       clipPathUnits="userSpaceOnUse"
       id="clipPath2022-2">
      <path
         id="path2024-3"
         style="fill:#ff0000;fill-opacity:1;fill-rule:nonzero;stroke:none;stroke-width:0.264583"
         d="m 93.059435,-1030.8353 v 124.57177 H 217.63167 v -38.31291 c -8.59906,-0.0503 -17.19892,-0.0333 -25.7979,0.0151 -12.69668,0.0713 -16.43259,-8.95236 -11.21172,-14.31076 0.14747,-0.51776 0.46414,-1.01169 0.95188,-1.42523 -3.58807,-2.53746 -4.6826,-6.38156 -3.28817,-9.60149 -1.81431,-0.11491 -3.04673,-0.78005 -3.70004,-1.64433 -1.23263,-0.93382 -1.51704,-2.3444 -0.85834,-3.50057 -2.40393,-0.005 -4.80805,-0.0143 -7.21197,-0.029 -17.99411,-0.10887 -17.994,-18.30252 0,-18.17717 17.03831,0.11864 34.07759,-0.0417 51.11626,-0.0377 v -37.54761 z" />
    </clipPath>
    <clipPath
       clipPathUnits="userSpaceOnUse"
       id="clipPath2022-27">
      <path
         id="path2024-4"
         style="fill:#ff0000;fill-opacity:1;fill-rule:nonzero;stroke:none;stroke-width:0.264583"
         d="m 93.059435,-1030.8353 v 124.57177 H 217.63167 v -38.31291 c -8.59906,-0.0503 -17.19892,-0.0333 -25.7979,0.0151 -12.69668,0.0713 -16.43259,-8.95236 -11.21172,-14.31076 0.14747,-0.51776 0.46414,-1.01169 0.95188,-1.42523 -3.58807,-2.53746 -4.6826,-6.38156 -3.28817,-9.60149 -1.81431,-0.11491 -3.04673,-0.78005 -3.70004,-1.64433 -1.23263,-0.93382 -1.51704,-2.3444 -0.85834,-3.50057 -2.40393,-0.005 -4.80805,-0.0143 -7.21197,-0.029 -17.99411,-0.10887 -17.994,-18.30252 0,-18.17717 17.03831,0.11864 34.07759,-0.0417 51.11626,-0.0377 v -37.54761 z" />
    </clipPath>
  </defs>
  <sodipodi:namedview
     fit-margin-bottom="0"
     fit-margin-right="0"
     fit-margin-left="0"
     fit-margin-top="0"
     showguides="false"
     id="base"
     pagecolor="#ffffff"
     bordercolor="#666666"
     borderopacity="1.0"
     inkscape:pageopacity="0"
     inkscape:pageshadow="2"
     inkscape:zoom="9.2221106"
     inkscape:cx="27.127729"
     inkscape:cy="6.7714231"
     inkscape:document-units="mm"
     inkscape:current-layer="layer1"
     inkscape:document-rotation="0"
     showgrid="false"
     inkscape:window-width="1440"
     inkscape:window-height="855"
     inkscape:window-x="0"
     inkscape:window-y="23"
     inkscape:window-maximized="0" />
  <metadata
     id="metadata5">
    <rdf:RDF>
      <cc:Work
         rdf:about="">
        <dc:format>image/svg+xml</dc:format>
        <dc:type
           rdf:resource="http://purl.org/dc/dcmitype/StillImage" />
        <dc:title></dc:title>
      </cc:Work>
    </rdf:RDF>
  </metadata>
  <g
     transform="translate(-10.503344,622.82689)"
     inkscape:label="Layer 1"
     inkscape:groupmode="layer"
     id="layer1">
    <path
       d="m 12.693769,-622.82549 h 2.801733 q 0.580848,0 1.116138,0.10463 0.54668,0.0942 0.968079,0.33477 0.421398,0.24061 0.67196,0.64862 0.250561,0.40801 0.250561,1.03571 0,0.80555 -0.489733,1.34956 -0.478345,0.54401 -1.378089,0.65908 l 2.141163,3.27451 h -1.731152 l -1.867823,-3.13851 h -1.047803 v 3.13851 h -1.435034 z m 2.551172,3.13851 q 0.307507,0 0.615015,-0.0209 0.307507,-0.0314 0.558069,-0.12554 0.261951,-0.10462 0.421398,-0.30338 0.159449,-0.20924 0.159449,-0.5754 0,-0.32431 -0.14806,-0.52309 -0.148059,-0.19877 -0.38723,-0.29292 -0.239173,-0.10462 -0.535292,-0.13601 -0.284729,-0.0314 -0.558069,-0.0314 h -1.241418 v 2.00864 z"
       style="font-style:normal;font-variant:normal;font-weight:900;font-stretch:normal;font-size:10.5223px;line-height:1.25;font-family:Avenir;-inkscape-font-specification:'Avenir, Heavy';font-variant-ligatures:normal;font-variant-caps:normal;font-variant-numeric:normal;font-variant-east-asian:normal;fill:#ffffff;fill-opacity:1;stroke:none;stroke-width:0.272891"
       id="path892" />
    <path
       d="m 16.281826,-621.53573 h -2.158994 v 6.11715 H 12.67292 v -6.11715 h -2.169576 v -1.29116 h 5.778482 z"
       style="font-style:normal;font-variant:normal;font-weight:bold;font-stretch:normal;font-size:10.58329999999999949px;line-height:1.25;font-family:'PT Sans';-inkscape-font-specification:'PT Sans, Bold';font-variant-ligatures:normal;font-variant-caps:normal;font-variant-numeric:normal;font-variant-east-asian:normal;fill:#db6d00;fill-opacity:1;stroke:none;stroke-width:0.265;stroke-miterlimit:4;stroke-dasharray:none"
       id="path895" />
  </g>
</svg>
